# xmcd CD database file
# Copyright (C) 1993-1996 Ti Kan
#
# Track frame offsets:
#  150
#  18153
#  35100
#  51578
#  71197
#  87176
#  103276
#  118717
#  138034
#  154205
#  169889
#  186628
#  200411
#
# Disc length: 2922 seconds
#
# Revision: 1
# Processed by: cddbd v1.5.2PL0 Copyright (c) Steve Scherf et al.
# Submitted via: Advanced CD Ripper Pro 2.0
#
DISCID=c30b680d
DTITLE=GECE YOLCULARI - KALBÝN KADAR YAKIN
DYEAR=2008
DGENRE=OTHER
TTITLE0=ÝHTÝMAL
TTITLE1=YILDIZLARDAYIM
TTITLE2=KAPATMA GÖZLERÝNÝ
TTITLE3=BÝR YER VAR MI
TTITLE4=SIRILSIKLAM
TTITLE5=AÞKLARDA YORULUR
TTITLE6=DUR GÝTME
TTITLE7=DEÐER MÝ
TTITLE8=GECELER SEVENLER ÝÇÝNDÝR
TTITLE9=BÝR DAHA DÖNME
TTITLE10=OLMUYOR
TTITLE11=MASAL
TTITLE12=SEN GÝDÝNCE
EXTD=
EXTT0=
EXTT1=
EXTT2=
EXTT3=
EXTT4=
EXTT5=
EXTT6=
EXTT7=
EXTT8=
EXTT9=
EXTT10=
EXTT11=
EXTT12=
PLAYORDER=
